<svg width="177" height="200" viewBox="0 0 177 200" fill="none" xmlns="http://www.w3.org/2000/svg">
<path d="M101.275 100C101.275 107.558 95.1482 113.684 87.5906 113.684C80.033 113.684 73.9064 107.558 73.9064 100C73.9064 92.4424 80.033 86.3158 87.5906 86.3158C95.1482 86.3158 101.275 92.4424 101.275 100Z" fill="#009606"/>
<path d="M138.643 121.579C138.643 129.137 132.517 135.263 124.959 135.263C117.401 135.263 111.275 129.137 111.275 121.579C111.275 114.021 117.401 107.895 124.959 107.895C132.517 107.895 138.643 114.021 138.643 121.579Z" fill="#009606"/>
<path d="M176.012 143.158C176.012 150.715 169.885 156.842 162.328 156.842C154.77 156.842 148.643 150.715 148.643 143.158C148.643 135.6 154.77 129.474 162.328 129.474C169.885 129.474 176.012 135.6 176.012 143.158Z" fill="#009606"/>
<path d="M64.4327 78.4212C64.4327 85.9788 58.3061 92.1054 50.7485 92.1054C43.1909 92.1054 37.0643 85.9788 37.0643 78.4212C37.0643 70.8636 43.1909 64.737 50.7485 64.737C58.3061 64.737 64.4327 70.8636 64.4327 78.4212Z" fill="#009606"/>
<path d="M27.5906 56.8421C27.5906 64.3997 21.464 70.5263 13.9064 70.5263C6.3488 70.5263 0.222168 64.3997 0.222168 56.8421C0.222168 49.2845 6.3488 43.1579 13.9064 43.1579C21.464 43.1579 27.5906 49.2845 27.5906 56.8421Z" fill="#009606"/>
<path d="M64.4327 121.579C64.4327 129.137 58.3061 135.263 50.7485 135.263C43.1909 135.263 37.0643 129.137 37.0643 121.579C37.0643 114.021 43.1909 107.895 50.7485 107.895C58.3061 107.895 64.4327 114.021 64.4327 121.579Z" fill="#009606"/>
<path d="M27.5906 143.158C27.5906 150.715 21.464 156.842 13.9064 156.842C6.3488 156.842 0.222168 150.715 0.222168 143.158C0.222168 135.6 6.3488 129.474 13.9064 129.474C21.464 129.474 27.5906 135.6 27.5906 143.158Z" fill="#009606"/>
<path d="M138.643 78.4212C138.643 85.9788 132.517 92.1054 124.959 92.1054C117.401 92.1054 111.275 85.9788 111.275 78.4212C111.275 70.8636 117.401 64.737 124.959 64.737C132.517 64.737 138.643 70.8636 138.643 78.4212Z" fill="#009606"/>
<path d="M176.012 56.8421C176.012 64.3997 169.885 70.5263 162.328 70.5263C154.77 70.5263 148.643 64.3997 148.643 56.8421C148.643 49.2845 154.77 43.1579 162.328 43.1579C169.885 43.1579 176.012 49.2845 176.012 56.8421Z" fill="#009606"/>
<path d="M101.275 143.158C101.275 150.715 95.1482 156.842 87.5906 156.842C80.033 156.842 73.9064 150.715 73.9064 143.158C73.9064 135.6 80.033 129.474 87.5906 129.474C95.1482 129.474 101.275 135.6 101.275 143.158Z" fill="#009606"/>
<path d="M101.275 186.316C101.275 193.873 95.1482 200 87.5906 200C80.033 200 73.9064 193.873 73.9064 186.316C73.9064 178.758 80.033 172.632 87.5906 172.632C95.1482 172.632 101.275 178.758 101.275 186.316Z" fill="#009606"/>
<path d="M101.275 56.8421C101.275 64.3997 95.1482 70.5263 87.5906 70.5263C80.033 70.5263 73.9064 64.3997 73.9064 56.8421C73.9064 49.2845 80.033 43.1579 87.5906 43.1579C95.1482 43.1579 101.275 49.2845 101.275 56.8421Z" fill="#009606"/>
<path d="M101.275 13.6842C101.275 21.2418 95.1482 27.3684 87.5906 27.3684C80.033 27.3684 73.9064 21.2418 73.9064 13.6842C73.9064 6.12663 80.033 0 87.5906 0C95.1482 0 101.275 6.12663 101.275 13.6842Z" fill="#009606"/>
</svg>
