<svg width="196" height="171" viewBox="0 0 196 171" fill="none" xmlns="http://www.w3.org/2000/svg">
<path d="M19.0533 107.708L70.9356 28.475C73.8788 24.0253 77.8787 20.3743 82.5779 17.8484C87.2769 15.3225 92.5287 14.0005 97.8637 14.0005C103.199 14.0005 108.451 15.3225 113.15 17.8484C117.849 20.3743 121.849 24.0253 124.792 28.475L176.674 107.285C179.88 112.15 181.71 117.792 181.968 123.613C182.227 129.433 180.908 135.215 178.147 140.346C175.387 145.477 171.288 149.766 166.289 152.756C161.288 155.746 155.573 157.33 149.746 157.335H45.9814C40.2212 157.28 34.5802 155.686 29.6439 152.717C24.7076 149.748 20.6557 145.512 17.9084 140.448C15.161 135.385 13.8184 129.679 14.0197 123.922C14.2211 118.165 15.959 112.567 19.0533 107.708Z" fill="#EBFF00" stroke="#EBFF00" stroke-width="26.88" stroke-linecap="round" stroke-linejoin="round"/>
</svg>
